<svg width="51" height="50" viewBox="0 0 51 50" fill="none" xmlns="http://www.w3.org/2000/svg">
<path d="M12.5406 47.4675C9.81044 45.3272 11.4033 39.2931 12.5406 36.5434C13.0425 35.3299 13.2213 35.1169 14.2469 32.0846C15.7037 27.7773 17.4688 22.1859 23.0224 20.2688C28.87 18.2503 46.4237 26.957 49.3489 32.0846C53.0054 39.8875 44.5176 43.4546 41.7922 43.4546C40.0528 43.4546 30.5791 43.4546 26.1913 47.4675C21.8036 51.4804 15.9533 50.1428 12.5406 47.4675Z" fill="#C4C4C4"/>
<path d="M12.5406 47.4675C9.81044 45.3272 11.4033 39.2931 12.5406 36.5434C13.0425 35.3299 13.2213 35.1169 14.2469 32.0846C15.7037 27.7773 17.4688 22.1859 23.0224 20.2688C28.87 18.2503 46.4237 26.957 49.3489 32.0846C53.0054 39.8875 44.5176 43.4546 41.7922 43.4546C40.0528 43.4546 30.5791 43.4546 26.1913 47.4675C21.8036 51.4804 15.9533 50.1428 12.5406 47.4675Z" fill="#C4C4C4"/>
<path d="M33.2136 7.47989C33.292 1.89015 28.4468 0.16424 26.0145 0C24.2841 0 20.8429 1.49598 20.9212 7.47989C21.0192 14.9598 27.0429 16.9753 28.659 16.6618C30.2752 16.3482 33.1156 14.4671 33.2136 7.47989Z" fill="#C4C4C4"/>
<path d="M33.2136 7.47989C33.292 1.89015 28.4468 0.16424 26.0145 0C24.2841 0 20.8429 1.49598 20.9212 7.47989C21.0192 14.9598 27.0429 16.9753 28.659 16.6618C30.2752 16.3482 33.1156 14.4671 33.2136 7.47989Z" fill="#C4C4C4"/>
<path d="M5.88175 12.4775C4.6283 7.00613 9.01952 4.45948 11.3718 3.87008C13.0698 3.56543 16.7616 4.42758 17.9442 10.3134C19.4225 17.6706 13.9356 20.7089 12.2837 20.6858C10.6319 20.6627 7.44857 19.3168 5.88175 12.4775Z" fill="#C4C4C4"/>
<path d="M5.88175 12.4775C4.62829 7.00613 9.01952 4.45948 11.3718 3.87008C13.0698 3.56543 16.7616 4.42758 17.9442 10.3134C19.4225 17.6706 13.9356 20.7089 12.2837 20.6858C10.6319 20.6627 7.44857 19.3168 5.88175 12.4775Z" fill="#C4C4C4"/>
<path d="M44.0858 12.0931C41.4608 9.69231 38.5844 10.406 37.4743 11.0629C35.6133 12.8096 35.7603 15.1836 36.1031 17.7814C36.4459 20.3792 40.4617 22.35 44.0858 21.1854C47.7098 20.0209 47.367 15.094 44.0858 12.0931Z" fill="#C4C4C4"/>
<path d="M44.0858 12.0931C41.4608 9.69231 38.5844 10.406 37.4743 11.0629C35.6133 12.8096 35.7603 15.1836 36.1031 17.7814C36.4459 20.3792 40.4617 22.35 44.0858 21.1854C47.7098 20.0209 47.367 15.094 44.0858 12.0931Z" fill="#C4C4C4"/>
<path d="M2.84001 24.0867C5.465 21.686 8.3414 22.3996 9.45147 23.0566C11.3125 24.8033 11.1655 27.1773 10.8227 29.7751C10.4799 32.3729 6.46403 34.3436 2.84001 33.1791C-0.784008 32.0146 -0.441218 27.0877 2.84001 24.0867Z" fill="#C4C4C4"/>
<path d="M2.84001 24.0867C5.465 21.686 8.3414 22.3996 9.45147 23.0566C11.3125 24.8033 11.1655 27.1773 10.8227 29.7751C10.4799 32.3729 6.46403 34.3436 2.84001 33.1791C-0.784008 32.0146 -0.441218 27.0877 2.84001 24.0867Z" fill="#C4C4C4"/>
</svg>
