<svg width="29" height="29" viewBox="0 0 29 29" fill="none" xmlns="http://www.w3.org/2000/svg">
<g clip-path="url(#clip0_4530_9635)">
<path d="M13.25 -0.999756C15.1397 -0.999756 16.9519 -0.249089 18.2881 1.08711C19.6243 2.4233 20.375 4.23558 20.375 6.12524C20.375 8.01491 19.6243 9.82718 18.2881 11.1634C16.9519 12.4996 15.1397 13.2502 13.25 13.2502C11.3603 13.2502 9.54806 12.4996 8.21186 11.1634C6.87567 9.82718 6.125 8.01491 6.125 6.12524C6.125 4.23558 6.87567 2.4233 8.21186 1.08711C9.54806 -0.249089 11.3603 -0.999756 13.25 -0.999756ZM13.25 16.8127C21.1231 16.8127 27.5 20.0012 27.5 23.9377V27.5002H-1V23.9377C-1 20.0012 5.37687 16.8127 13.25 16.8127Z" fill="white"/>
</g>
<defs>
<clipPath id="clip0_4530_9635">
<rect width="28.5" height="28.5" fill="white"/>
</clipPath>
</defs>
</svg>
