<svg width="130" height="30" viewBox="0 0 130 30" fill="none" xmlns="http://www.w3.org/2000/svg">
<path d="M115.421 29.9995C111.252 29.9995 107.755 28.5743 104.985 25.696C102.216 22.8176 100.816 19.2536 100.816 14.978C100.816 10.7024 102.216 7.16632 104.985 4.28798C107.757 1.43545 111.252 0.0102539 115.421 0.0102539C119.589 0.0102539 123.06 1.43545 125.83 4.28583C128.599 7.16417 129.998 10.7282 129.998 14.9759C129.998 19.2235 128.599 22.8155 125.83 25.6938C123.06 28.5722 119.589 29.9974 115.421 29.9974V29.9995ZM115.421 22.0782C117.311 22.0782 118.891 21.3925 120.16 20.0489C121.429 18.7054 122.051 17.0072 122.051 14.978C122.051 12.9488 121.429 11.2785 120.16 9.93502C118.891 8.59151 117.311 7.93373 115.421 7.93373C113.53 7.93373 111.926 8.59151 110.681 9.93502C109.412 11.2785 108.791 12.9767 108.791 14.978C108.791 16.9793 109.412 18.7054 110.681 20.0489C111.924 21.3925 113.504 22.0782 115.421 22.0782Z" fill="black"/>
<path d="M92.4488 15.0038H90.5278V20.079C89.2648 21.4011 87.6971 22.076 85.8229 22.076C83.908 22.076 82.3282 21.3903 81.0854 20.0468C79.8163 18.7033 79.1949 17.0051 79.1949 14.9759C79.1949 12.9466 79.8163 11.2764 81.0854 9.93287C82.3282 8.58936 83.908 7.93158 85.8249 7.93158H89.8942V0.0102539H85.8249C81.656 0.0102539 78.1593 1.43545 75.3896 4.28583C72.6198 7.16417 71.2207 10.7282 71.2207 14.9759C71.2207 19.2235 72.6198 22.8155 75.3896 25.6938C78.1593 28.5722 81.656 29.9974 85.8229 29.9974C89.9917 29.9974 93.46 28.5722 96.2318 25.6938C96.9039 24.9952 97.4908 24.2557 98.0025 23.4776H98.0066V15.0038H92.4508H92.4488Z" fill="black"/>
<path d="M69.8864 21.7928H58.9556V0H51.2129V21.7928V29.9871H58.9556H69.8864V21.7928Z" fill="black"/>
<path d="M21.2727 4.31378C18.503 1.43545 15.0062 0.0102539 10.8374 0.0102539H0V29.9974H10.8374C15.0062 29.9974 18.503 28.5722 21.2727 25.7218C24.0425 22.8434 25.4416 19.2794 25.4416 15.0317C25.4416 10.7841 24.0425 7.19211 21.2727 4.31378V4.31378ZM15.5768 20.0747C14.3341 21.4182 12.7543 22.076 10.8374 22.076V22.0825H7.74274V7.92513H10.8374V7.93158C12.7543 7.93158 14.3321 8.6173 15.5768 9.96081C16.846 11.3043 17.4674 13.0025 17.4674 15.0317C17.4674 17.061 16.846 18.7312 15.5768 20.0747Z" fill="black"/>
<path d="M42.8542 7.93158H46.9235V0.0102539H42.8542C38.6853 0.0102539 35.1886 1.43545 32.4189 4.28583C29.6491 7.16417 28.25 10.7282 28.25 14.9759C28.25 19.2235 29.6491 22.8155 32.4189 25.6938C35.1886 28.5722 38.6853 29.9974 42.8542 29.9974H46.9235V22.076H42.8542C40.9373 22.076 39.3595 21.3903 38.1147 20.0468C37.7939 19.7072 37.5157 19.346 37.2781 18.9612H46.9235V11.0464H37.2619C37.5035 10.653 37.7858 10.2811 38.1147 9.93287C39.3575 8.58936 40.9373 7.93158 42.8542 7.93158V7.93158Z" fill="black"/>
</svg>
